TITLE ""
FILE "1Q_t_1849-1858.mp3" MP3
  TRACK 01 AUDIO
    TITLE "1Q_t_1849-1858_01"
    INDEX 01 00:00:00
  TRACK 02 AUDIO
    TITLE "1Q_t_1849-1858_02"
    INDEX 01 00:01:12
  TRACK 03 AUDIO
    TITLE "1Q_t_1849-1858_03"
    INDEX 01 00:01:22
  TRACK 04 AUDIO
    TITLE "1Q_t_1849-1858_04"
    INDEX 01 00:03:18
  TRACK 05 AUDIO
    TITLE "1Q_t_1849-1858_05"
    INDEX 01 00:03:28
  TRACK 06 AUDIO
    TITLE "1Q_t_1849-1858_06"
    INDEX 01 00:09:19
  TRACK 07 AUDIO
    TITLE "1Q_t_1849-1858_07"
    INDEX 01 00:09:68
  TRACK 08 AUDIO
    TITLE "1Q_t_1849-1858_08"
    INDEX 01 00:10:73
  TRACK 09 AUDIO
    TITLE "1Q_t_1849-1858_09"
    INDEX 01 00:11:08
  TRACK 10 AUDIO
    TITLE "1Q_t_1849-1858_10"
    INDEX 01 00:12:62
  TRACK 11 AUDIO
    TITLE "1Q_t_1849-1858_11"
    INDEX 01 00:12:72
  TRACK 12 AUDIO
    TITLE "1Q_t_1849-1858_12"
    INDEX 01 00:19:61
  TRACK 13 AUDIO
    TITLE "1Q_t_1849-1858_13"
    INDEX 01 00:20:37
  TRACK 14 AUDIO
    TITLE "1Q_t_1849-1858_14"
    INDEX 01 00:21:34
  TRACK 15 AUDIO
    TITLE "1Q_t_1849-1858_15"
    INDEX 01 00:21:44
  TRACK 16 AUDIO
    TITLE "1Q_t_1849-1858_16"
    INDEX 01 00:22:63
  TRACK 17 AUDIO
    TITLE "1Q_t_1849-1858_17"
    INDEX 01 00:22:75
  TRACK 18 AUDIO
    TITLE "1Q_t_1849-1858_18"
    INDEX 01 00:27:42
  TRACK 19 AUDIO
    TITLE "1Q_t_1849-1858_19"
    INDEX 01 00:28:13
  TRACK 20 AUDIO
    TITLE "1Q_t_1849-1858_20"
    INDEX 01 00:29:45
  TRACK 21 AUDIO
    TITLE "1Q_t_1849-1858_21"
    INDEX 01 00:29:53
  TRACK 22 AUDIO
    TITLE "1Q_t_1849-1858_22"
    INDEX 01 00:31:38
  TRACK 23 AUDIO
    TITLE "1Q_t_1849-1858_23"
    INDEX 01 00:31:46
  TRACK 24 AUDIO
    TITLE "1Q_t_1849-1858_24"
    INDEX 01 00:37:11
  TRACK 25 AUDIO
    TITLE "1Q_t_1849-1858_25"
    INDEX 01 00:37:60
  TRACK 26 AUDIO
    TITLE "1Q_t_1849-1858_26"
    INDEX 01 00:38:74
  TRACK 27 AUDIO
    TITLE "1Q_t_1849-1858_27"
    INDEX 01 00:39:08
  TRACK 28 AUDIO
    TITLE "1Q_t_1849-1858_28"
    INDEX 01 00:40:74
  TRACK 29 AUDIO
    TITLE "1Q_t_1849-1858_29"
    INDEX 01 00:41:09
  TRACK 30 AUDIO
    TITLE "1Q_t_1849-1858_30"
    INDEX 01 00:48:13
  TRACK 31 AUDIO
    TITLE "1Q_t_1849-1858_31"
    INDEX 01 00:48:60
  TRACK 32 AUDIO
    TITLE "1Q_t_1849-1858_32"
    INDEX 01 00:49:64
  TRACK 33 AUDIO
    TITLE "1Q_t_1849-1858_33"
    INDEX 01 00:49:71
  TRACK 34 AUDIO
    TITLE "1Q_t_1849-1858_34"
    INDEX 01 00:52:25
  TRACK 35 AUDIO
    TITLE "1Q_t_1849-1858_35"
    INDEX 01 00:52:33
  TRACK 36 AUDIO
    TITLE "1Q_t_1849-1858_36"
    INDEX 01 00:57:53
  TRACK 37 AUDIO
    TITLE "1Q_t_1849-1858_37"
    INDEX 01 00:58:25
  TRACK 38 AUDIO
    TITLE "1Q_t_1849-1858_38"
    INDEX 01 00:59:52
  TRACK 39 AUDIO
    TITLE "1Q_t_1849-1858_39"
    INDEX 01 00:59:62
  TRACK 40 AUDIO
    TITLE "1Q_t_1849-1858_40"
    INDEX 01 01:03:13
  TRACK 41 AUDIO
    TITLE "1Q_t_1849-1858_41"
    INDEX 01 01:03:23
  TRACK 42 AUDIO
    TITLE "1Q_t_1849-1858_42"
    INDEX 01 01:09:21
  TRACK 43 AUDIO
    TITLE "1Q_t_1849-1858_43"
    INDEX 01 01:09:68
  TRACK 44 AUDIO
    TITLE "1Q_t_1849-1858_44"
    INDEX 01 01:11:16
  TRACK 45 AUDIO
    TITLE "1Q_t_1849-1858_45"
    INDEX 01 01:11:26
  TRACK 46 AUDIO
    TITLE "1Q_t_1849-1858_46"
    INDEX 01 01:13:13
  TRACK 47 AUDIO
    TITLE "1Q_t_1849-1858_47"
    INDEX 01 01:13:23
  TRACK 48 AUDIO
    TITLE "1Q_t_1849-1858_48"
    INDEX 01 01:18:08
  TRACK 49 AUDIO
    TITLE "1Q_t_1849-1858_49"
    INDEX 01 01:18:57
  TRACK 50 AUDIO
    TITLE "1Q_t_1849-1858_50"
    INDEX 01 01:19:69
  TRACK 51 AUDIO
    TITLE "1Q_t_1849-1858_51"
    INDEX 01 01:20:03
  TRACK 52 AUDIO
    TITLE "1Q_t_1849-1858_52"
    INDEX 01 01:21:05
  TRACK 53 AUDIO
    TITLE "1Q_t_1849-1858_53"
    INDEX 01 01:21:13
  TRACK 54 AUDIO
    TITLE "1Q_t_1849-1858_54"
    INDEX 01 01:26:53
  TRACK 55 AUDIO
    TITLE "1Q_t_1849-1858_55"
    INDEX 01 01:27:25
  TRACK 56 AUDIO
    TITLE "1Q_t_1849-1858_56"
    INDEX 01 01:28:42
  TRACK 57 AUDIO
    TITLE "1Q_t_1849-1858_57"
    INDEX 01 01:28:52
  TRACK 58 AUDIO
    TITLE "1Q_t_1849-1858_58"
    INDEX 01 01:29:61
  TRACK 59 AUDIO
    TITLE "1Q_t_1849-1858_59"
    INDEX 01 01:29:71
  TRACK 60 AUDIO
    TITLE "1Q_t_1849-1858_60"
    INDEX 01 01:35:21
